<svg version="1.2" xmlns="http://www.w3.org/2000/svg" viewBox="0 0 819 822" width="819" height="822">
	<title>2203354</title>
	<defs>
		<linearGradient id="g1" x2="1" gradientUnits="userSpaceOnUse" gradientTransform="matrix(0,763.725,-769.315,0,791.082,38.202)">
			<stop offset="0" stop-color="#ffffff" stop-opacity="0"/>
			<stop offset=".865" stop-color="#ff7baa" stop-opacity="1"/>
		</linearGradient>
		<linearGradient id="g2" x2="1" gradientUnits="userSpaceOnUse" gradientTransform="matrix(0,763.725,-769.315,0,791.082,38.202)">
			<stop offset="0" stop-color="#ffffff" stop-opacity="0"/>
			<stop offset=".865" stop-color="#ff7baa" stop-opacity="1"/>
		</linearGradient>
		<linearGradient id="g3" x2="1" gradientUnits="userSpaceOnUse" gradientTransform="matrix(0,259.744,-149.25,0,683.467,39.016)">
			<stop offset="0" stop-color="#ffffff" stop-opacity="0"/>
			<stop offset=".865" stop-color="#ff7baa" stop-opacity="1"/>
		</linearGradient>
		<linearGradient id="g4" x2="1" gradientUnits="userSpaceOnUse" gradientTransform="matrix(0,75.718,-23.12,0,881.068,260.363)">
			<stop offset="0" stop-color="#ffffff" stop-opacity="0"/>
			<stop offset=".865" stop-color="#ff7baa" stop-opacity="1"/>
		</linearGradient>
		<linearGradient id="g5" x2="1" gradientUnits="userSpaceOnUse" gradientTransform="matrix(0,35.093,-102.285,0,223.193,265.049)">
			<stop offset="0" stop-color="#ffffff" stop-opacity="0"/>
			<stop offset=".865" stop-color="#ff7baa" stop-opacity="1"/>
		</linearGradient>
		<linearGradient id="g6" x2="1" gradientUnits="userSpaceOnUse" gradientTransform="matrix(0,8.064,-11.301,0,283.556,297.01)">
			<stop offset="0" stop-color="#ffffff" stop-opacity="0"/>
			<stop offset=".865" stop-color="#ff7baa" stop-opacity="1"/>
		</linearGradient>
		<linearGradient id="g7" x2="1" gradientUnits="userSpaceOnUse" gradientTransform="matrix(0,12.871,-16.383,0,558.409,188.179)">
			<stop offset="0" stop-color="#ffffff" stop-opacity="0"/>
			<stop offset=".865" stop-color="#ff7baa" stop-opacity="1"/>
		</linearGradient>
		<linearGradient id="g8" x2="1" gradientUnits="userSpaceOnUse" gradientTransform="matrix(0,11.224,-18.913,0,524.714,299.6)">
			<stop offset="0" stop-color="#ffffff" stop-opacity="0"/>
			<stop offset=".865" stop-color="#ff7baa" stop-opacity="1"/>
		</linearGradient>
		<linearGradient id="g9" x2="1" gradientUnits="userSpaceOnUse" gradientTransform="matrix(0,13.078,-24.853,0,588.128,305.21)">
			<stop offset="0" stop-color="#ffffff" stop-opacity="0"/>
			<stop offset=".865" stop-color="#ff7baa" stop-opacity="1"/>
		</linearGradient>
		<linearGradient id="g10" x2="1" gradientUnits="userSpaceOnUse" gradientTransform="matrix(0,9.047,-19.88,0,545.598,320.046)">
			<stop offset="0" stop-color="#ffffff" stop-opacity="0"/>
			<stop offset=".865" stop-color="#ff7baa" stop-opacity="1"/>
		</linearGradient>
		<linearGradient id="g11" x2="1" gradientUnits="userSpaceOnUse" gradientTransform="matrix(0,37.62,-30.363,0,631.53,200.99)">
			<stop offset="0" stop-color="#ffffff" stop-opacity="0"/>
			<stop offset=".865" stop-color="#ff7baa" stop-opacity="1"/>
		</linearGradient>
		<linearGradient id="g12" x2="1" gradientUnits="userSpaceOnUse" gradientTransform="matrix(0,48.781,-22.285,0,691.118,242.467)">
			<stop offset="0" stop-color="#ffffff" stop-opacity="0"/>
			<stop offset=".865" stop-color="#ff7baa" stop-opacity="1"/>
		</linearGradient>
	</defs>
	<style>
		.s0 { opacity: .25;mix-blend-mode: multiply;fill: #d6b6f2 } 
		.s1 { fill: #6b3492 } 
		.s2 { fill: #58267e } 
		.s3 { fill: #783ca6 } 
		.s4 { fill: #2d1e1e } 
		.s5 { fill: #5b5b5b } 
		.s6 { fill: #727171 } 
		.s7 { fill: #f9a66e } 
		.s8 { fill: #e5da00 } 
		.s9 { fill: #fffb10 } 
		.s10 { fill: #ffb37b } 
		.s11 { fill: #422b2b } 
		.s12 { fill: #3f3f3f } 
		.s13 { fill: #282828 } 
		.s14 { fill: #4fd352 } 
		.s15 { fill: #fff429 } 
		.s16 { fill: #756666 } 
		.s17 { fill: #685d5d } 
		.s18 { fill: #564b4b } 
		.s19 { fill: #2d2d2d } 
		.s20 { fill: #212121 } 
		.s21 { fill: #ce5252 } 
		.s22 { opacity: .21;mix-blend-mode: multiply;fill: #ff7b7b } 
		.s23 { fill: #231f20 } 
		.s24 { opacity: .72;mix-blend-mode: multiply;fill: url(#g1) } 
		.s25 { opacity: .72;mix-blend-mode: multiply;fill: url(#g2) } 
		.s26 { fill: url(#g3) } 
		.s27 { mix-blend-mode: overlay;fill: url(#g4) } 
		.s28 { mix-blend-mode: overlay;fill: url(#g5) } 
		.s29 { mix-blend-mode: overlay;fill: url(#g6) } 
		.s30 { mix-blend-mode: overlay;fill: url(#g7) } 
		.s31 { mix-blend-mode: overlay;fill: url(#g8) } 
		.s32 { mix-blend-mode: overlay;fill: url(#g9) } 
		.s33 { mix-blend-mode: overlay;fill: url(#g10) } 
		.s34 { mix-blend-mode: overlay;fill: url(#g11) } 
		.s35 { mix-blend-mode: overlay;fill: url(#g12) } 
		.s36 { fill: #1d262d } 
	</style>
	<g id="BACKGROUND">
	</g>
	<g id="OBJECTS">
		<g id="&lt;Group&gt;">
			<g id="&lt;Group&gt;">
				<path id="&lt;Path&gt;" class="s0" d="m796.7 620.4c0 61.6-87.4 111.6-195.2 111.6-107.8 0-195.2-50-195.2-111.6 0-61.7 87.4-111.6 195.2-111.6 107.8 0 195.2 49.9 195.2 111.6z"/>
				<g id="&lt;Group&gt;">
					<g id="&lt;Group&gt;">
						<g id="&lt;Group&gt;">
							<g id="&lt;Group&gt;">
								<path id="&lt;Path&gt;" class="s1" d="m387.5 307.1c0 0 17-27.3 46-30.3 29-3 67.7-26.7 73.7-44.4 6-17.6 80.3-60.6 126.6-63.3 46.4-2.7 107.4 21.3 116 30.3 8.7 9 4 33.7 13.7 50 9.7 16.4 42.3 75.4 30.7 145-11.7 69.7-21 152.7-54.7 174.4-33.7 21.6-101 29.3-160 6-59-23.4-194-63-194-63l-37-168.7z"/>
								<path id="&lt;Path&gt;" class="s2" d="m625.8 196.4c0 0 78.4 11.4 89.4 43 11 31.7 12.6 41.4 1.6 52.4-11 11-33 46.3-39 63.3-6 17-19 83-19 83l-52.6 14.7-94.4-23-53-14-19-40.7-47.6-34.3c0 0-7-44 20.6-50.7 27.7-6.7 48.4 17.7 52.4 31.3 4 13.7 19 32 19 32 0 0 85.6-26.3 83.6-54.6-2-28.4 9.7-112.7 58-102.4z"/>
								<path id="&lt;Path&gt;" class="s3" d="m472.5 407.1c0 0 39.7-2.7 67.3 5.7 27.7 8.3 86.4 27.3 100.7 20 14.3-7.4 21-16 25.3-36.4 4.4-20.3 15.7-81 63.4-76 47.6 5 63.6 32.7 60.3 65-3.3 32.4-13.7 173-67.7 189-54 16-89.6 14.4-151.3-9-61.7-23.3-142.7-49-142.7-49l-4-96.6c0 0 24.4-17.7 48.7-12.7z"/>
							</g>
							<path id="&lt;Path&gt;" class="s4" d="m436.8 82.4c-5.2 6 6 12 4 18-2 6-4 8-2 14 2 6 6 8 12 14 6 6 9.4 7.4 12.7 12.7 3.3 5.3 11.3 19.3 15.3 3.3 4-16 7.4-20 3.7-32-3.7-12-13.7-26-13.7-26l-14-6c0 0-4-14-18 2z"/>
							<path id="&lt;Path&gt;" class="s5" d="m459.2 350.1c0 0 60.6-17.7 69-17.7 8.3 0 72.3 4.4 72.3 4.4l1 44.6c0 0-22 10-32 9.4-10-0.7-30-4-30-4 0 0-45.5 11.3-54.5 13.4q-0.8 0.1-1.2 0.2c-4.6 1 0.7-0.1 0.7-0.1 0 0 1.7 14.1 1.3 19.5-0.3 5.3-18.3 15.3-24.6 16-6.4 0.6-12.7-2.7-12.7-2.7l4-76z"/>
							<path id="&lt;Path&gt;" class="s6" d="m569.2 431.4c0 0 7.3-78.3 24-83.3 16.6-5 25.3-29.3 31.3-31 6-1.7 23.3-6.3 23.3-6.3 0 0-2 34 0.4 45.3 2.3 11.3 2 33-9.7 51.7-11.7 18.6-26 34.6-26 34.6 0 0-30.3 5.7-43.3-11z"/>
							<path id="&lt;Path&gt;" class="s7" d="m504.8 222.4c0 0-28 52-34 58-6 6 18 24 30 12 12-12 40-44 40-44 0 0-26-24-36-26z"/>
							<path id="&lt;Path&gt;" class="s8" d="m492.8 238.4c0 0 10-20 18-38 8-18 34 4 36 10 2 6-4 50-4 50 0 0-26-24-50-22z"/>
							<path id="&lt;Path&gt;" class="s9" d="m518.8 190.4c0 0 4 34 14 52 10 18 10 70 4 82-6 12 24 16 24 16 0 0 84 6 86 8 2 2 12-72 6-92-6-20-18-88-48-92-30-4-50-6-50-6z"/>
							<path id="&lt;Path&gt;" class="s8" d="m552.8 186.4c0 0-22 26 6 24 28-2 28-26 26-34-2-8-6-12-16-10-10 2-16 20-16 20z"/>
							<path id="&lt;Path&gt;" class="s7" d="m550.8 142.4c0 0 12 26 20 30 8 4-4 34-12 32-8-2-16-14-24-16-8-2 2-50 16-46z"/>
							<path id="&lt;Path&gt;" class="s10" d="m467.8 79.4c0 0-14 14-12 28 2 14 8 18 8 28 0 10-9 35 3 49 12 14 44 32 66 16 22-16 26-30 30-54 4-24 4-72-16-74-20-2-54-14-79 7z"/>
							<path id="&lt;Path&gt;" class="s11" d="m456.8 60.4c0 0 0 10-4 10-3.4 0-9.9 0-9 5.2q0.2 1.2 1 2.8c4 8 10 16 8 18-2 2-8 8-2 10 6 2 28 12 44 2 16-10 22-18 22-18 0 0-2 6 10 2 12-4 18-8 18-8 0 0-6 6 4 8 10 2 8 2 10 10 2 8-4 18-4 18l-2 4 8 8c0 0 4-10 12-10 8 0 6-24 8-28 2-4-2-6-2-8 0-2 2-24-6-26-8-2-12-6-18-10-6-4-12-4-14-4-2 0-6-8-16-6-10 2-18 8-20 8-2 0-10-12-18-10-8 2-18 10-20 12-2 2-4 10-10 10z"/>
							<path id="&lt;Path&gt;" class="s7" d="m556.8 136.4c0 0 6.7-22 20.4-17 13.6 5 5.6 47-18.4 39 0 0-6-8-2-22z"/>
							<path id="&lt;Path&gt;" class="s10" d="m615.8 230.1c0 0 24.7 30.3 26.4 46 1.6 15.7-37.7 36.7-46.4 38.3-8.6 1.7-3 30 9.7 28.7 12.7-1.3 38.7-19.3 48.3-24 9.7-4.7 25-20.3 25-37.7 0-17.3-15.3-52.3-26.3-72-11-19.6-36.7 20.7-36.7 20.7z"/>
							<path id="&lt;Path&gt;" class="s12" d="m499.2 317.4c0 0 29-1.6 32.6 1 3.7 2.7 2.4 4 9.7 4 7.3 0 10.7-5 10.7-5 0 0 24.1-3.1 27.3 0 3.2 3.2 9.7 17.7 9.7 19 0 1.4-7 16.4-15.4 17-8.3 0.7-29.3 0.4-30.6 0-1.4-0.3-4-10-9.4-10-5.3 0-11.6 8.4-17.6 8-6-0.3-21.4-12.6-21.4-12.6 0 0-7-15 4.4-21.4z"/>
							<path id="&lt;Path&gt;" class="s13" d="m554.8 310.1l3.4-2h13.6l3.7 6-7 6h-11.7z"/>
							<path id="&lt;Path&gt;" class="s14" d="m518.8 310.8h15.7c0 0-2.3 7.3-3.3 9.3-1 2-11.7 0-11.7 0 0 0-2.3-6.3-0.7-9.3z"/>
							<path id="&lt;Path&gt;" class="s13" d="m497.8 324.8h18.7v13.6h-19.7z"/>
							<path id="&lt;Path&gt;" class="s13" d="m555.5 325.4h19v14.4h-21.7z"/>
							<path id="&lt;Path&gt;" class="s10" d="m574.5 418.8c0 0-16 79.6-25.3 90.3-9.4 10.7 3.6 18 7.6 17.3 4-0.6 5.4-8.6 11.4-18 6-9.3 36.6-60.3 46.6-74 10-13.6-29.6-34-40.3-15.6z"/>
							<path id="&lt;Path&gt;" class="s13" d="m538.2 512.4c0 0 9.3-8.3 20.3-1.6 11 6.6 7.3 14.6 4.7 22.3-2.7 7.7-17.7 25-17.7 25l-24-24.3z"/>
							<path id="&lt;Path&gt;" class="s12" d="m537.2 520.8l1-8.4c0 0 13-13.3 19.3-15.6 6.3-2.4 15 8.3 14 16-1 7.6-10 25.3-10 25.3 0 0-27-5.3-24.3-17.3z"/>
							<path id="&lt;Path&gt;" class="s10" d="m480.2 413.4c0 0 5.3 11.7 2.6 25-2.6 13.4-8.6 25.4-6.6 36.7 2 11.3 5.3 24.3 5.3 24.3 0 0-15.7 14-23.3 10-7.7-4 0.6-62.3 0.6-62.3l3.7-29.7z"/>
							<path id="&lt;Path&gt;" class="s12" d="m451.5 497.1c0 0 4.3-4.7 8-1 3.7 3.7 12 6 15.7 2.3 3.6-3.6 4.3-6.6 4.3-6.6 0 0 2.3-3 5.3 3.3 3 6.3 3.7 23 3.7 23l-24.7 9.7-21-11z"/>
							<path id="&lt;Path&gt;" class="s15" d="m594.8 208.4c0 0 12 24 22 32 0 0 34-10 38-32 0 0-22.6-44-47.3-43-24.7 1-12.7 43-12.7 43z"/>
							<path id="&lt;Path&gt;" class="s10" d="m606.5 318.4c0 0-16.7-13.3-25.7-14-9-0.6-11.6-0.6-11.6-0.6 0 0-1.4 5.3 4.6 8 6 2.6 11 4.6 11.7 8.3 0.7 3.7-2.7 10-9.3 13.7-6.7 3.6-17 10-20.4 14-3.3 4-4.3 7-4.3 7 0 0 6.3 3 11.3-1 5-4 12.7-2.4 15-1 2.4 1.3 3.7 5 10 3.6 6.4-1.3 8.4-2 15.7-7 7.3-5 10.7-7.3 12.7-12.6 2-5.4 5.3-16.4-9.7-18.4z"/>
							<path id="&lt;Path&gt;" class="s10" d="m478.8 276.4c0 0-12 0-18 22-6 22 26 34 26 34 0 0 0 12 6 16 6 4 10 2 16 4 6 2 14 0 8-6-6-6-16-8-16-10 0-2-2-8 0-12 2-4 6-6 8-10 2-4 12-8 14-4 2 4 12 7.7 11.7 0.7-0.3-7-9.3-14.3-15.7-13.7-6.3 0.7-11 5-14 5-3 0-11.6-26.6-26-26z"/>
							<path id="&lt;Path&gt;" class="s16" d="m27.3 481.4l113-95 447.5 148.5-117.5 127.5z"/>
							<path id="&lt;Path&gt;" class="s17" d="m29.8 608.4l-2.5-127 443 181v139.5z"/>
							<path id="&lt;Path&gt;" class="s18" d="m582.3 695.9l-112 106v-139.5l117.5-127.5z"/>
							<path id="&lt;Path&gt;" class="s19" d="m154.3 256.4l33.5-20 282 78.5-34 28z"/>
							<path id="&lt;Path&gt;" class="s20" d="m463.8 493.4l6-178.5-34 28 0.5 169z"/>
							<path id="&lt;Path&gt;" class="s20" d="m197.3 481.9l54-44.5 166.5 56-66 58-155-58.5z"/>
							<path id="&lt;Path&gt;" class="s12" d="m349.5 571.1l67-53.7 101.7 31.7-61.4 63.3z"/>
							<path id="&lt;Path&gt;" class="s20" d="m465.8 631.4l-9-19-107.3-41.3 10.3 18.3z"/>
							<path id="&lt;Path&gt;" class="s19" d="m518.2 549.1l13.6 12.3-66 70-9-19z"/>
							<g id="&lt;Group&gt;">
								<path id="&lt;Path&gt;" class="s19" d="m415.9 596.5l-1.4-1.5 62.3-59.6 1.4 1.4z"/>
							</g>
							<g id="&lt;Group&gt;">
								<path id="&lt;Path&gt;" class="s12" d="m461.4 622.6l-106.6-40.2 0.7-1.9 105.4 39.8 64.2-66.6 1.5 1.4z"/>
							</g>
							<g id="&lt;Group&gt;">
								<path id="&lt;Path&gt;" class="s20" d="m398 612.4q-8.6 0-20.4-3c-43.8-11-66.8-28.7-63.1-48.5 3.8-20.3 25.3-35.9 52.3-38.1 5.2-0.5 10.2-0.5 14.6-0.5 16.9-0.1 27.1-0.1 27.1-20.2h2c0 22.1-12.2 22.1-29.1 22.2-4.4 0-9.3 0-14.5 0.5-26 2.1-46.8 17.1-50.4 36.5-3.5 18.6 19 35.4 61.6 46.2 20.4 5.1 29.6 2.4 33.7-0.7 3.6-2.7 3.7-6 3.7-6.1l2 0.1c0 0.2-0.1 4.3-4.5 7.6q-5.2 4-15 4z"/>
							</g>
							<g id="&lt;Group&gt;">
								<path id="&lt;Path&gt;" class="s20" d="m267.5 746l-0.7-1.8c0.8-0.3 74.3-27.6 72-66-1-17.2-4-25.8-5.9-31.5-2.7-7.7-3.9-11.2 3.1-23.4 12-21 33.8-34.3 34-34.4l1 1.7c-0.2 0.1-21.6 13.1-33.3 33.7-6.5 11.4-5.6 14.2-3 21.8 2.1 5.8 5.1 14.5 6.1 31.9 1 16.6-11.4 33.7-35.9 49.3-18.3 11.7-37.2 18.7-37.4 18.7z"/>
							</g>
							<path id="&lt;Path&gt;" class="s12" d="m355.7 595.1c0 0 8.1 5.8 10.6 4.8 2.5-1 11-9 11-9 0 0-9.1-6-13-5.5-3.8 0.5-8.6 9.7-8.6 9.7z"/>
							<path id="&lt;Path&gt;" class="s19" d="m259.8 445.4v35l66 26 13.5-11.5v-40z"/>
							<path id="&lt;Path&gt;" class="s12" d="m159.3 418.9l277 93-0.5-169-281.5-86.5z"/>
							<path id="&lt;Path&gt;" class="s19" d="m351.8 387.2c0 33-30.2 59.7-67.5 59.7-37.2 0-67.5-26.7-67.5-59.7 0-33 30.3-59.8 67.5-59.8 37.3 0 67.5 26.8 67.5 59.8z"/>
						</g>
						<path id="&lt;Path&gt;" class="s21" d="m517.6 161.3c-2.1 4.4-6.1 6.9-10.9 6.7-1.3-0.1-1.3 1.9 0 2 5.4 0.2 10.3-2.7 12.6-7.7 0.6-1.1-1.1-2.1-1.7-1z"/>
						<path id="&lt;Path&gt;" class="s22" d="m486.6 156.8c0 4.2-5.5 7.6-12.3 7.6-6.8 0-12.2-3.4-12.2-7.6 0-4.1 5.4-7.5 12.2-7.5 6.8 0 12.3 3.4 12.3 7.5z"/>
						<path id="&lt;Path&gt;" class="s22" d="m544.5 149.3c0.9 4.1-3.8 8.5-10.4 10-6.6 1.4-12.7-0.7-13.6-4.8-0.9-4.1 3.8-8.6 10.4-10.1 6.6-1.4 12.7 0.8 13.6 4.9z"/>
						<path id="&lt;Path&gt;" class="s23" d="m527.9 134c-3.9 0-3.9 6 0 6 3.9 0 3.9-6 0-6z"/>
						<path id="&lt;Path&gt;" class="s23" d="m472.7 139.2c-3.8 0-3.8 6 0 6 3.9 0 3.9-6 0-6z"/>
						<path id="&lt;Path&gt;" class="s11" d="m478.5 127.5q-4.6-1-9.2-1.9c-3.8-0.8-5.4 5-1.6 5.8q4.6 0.9 9.2 1.9c3.8 0.7 5.4-5 1.6-5.8z"/>
						<path id="&lt;Path&gt;" class="s11" d="m531.6 122.2c-0.9-1.5-2.6-1.7-4.1-1.1q-5.5 2.4-10.6 5.7c-3.2 2-0.2 7.2 3.1 5.1q5-3.2 10.5-5.6c1.5-0.6 1.8-2.8 1.1-4.1z"/>
						<path id="&lt;Path&gt;" class="s22" d="m575.8 127.2c-7.3-0.3-10.8 6.3-14.6 11.4-2.3 3.1 2.9 6.1 5.2 3 2.4-3.2 4.7-8.6 9.4-8.4 3.9 0.2 3.9-5.8 0-6z"/>
					</g>
					<g id="&lt;Group&gt;">
						<path id="&lt;Path&gt;" class="s0" d="m368.3 121c-0.3 1.8-0.3 3.5-0.3 5.3q0.1 2.7 0.9 5.2c1.1 3.8 4 6.1 8.2 7.2 1.5 0.4 3.1 0.6 4.6 0.7 0.2 0.1 0.4 0.1 0.6 0.1 0.5 0.2 0.6 0.6 0.2 1-0.3 0.3-0.7 0.5-1.1 0.6-2.3 1-4.4 2.2-6.3 3.7-2.4 1.9-3.9 4.4-4.9 7-0.6 1.4-1.1 2.9-0.9 4.5 0.1 0.5 0 1.1-0.2 1.7 0 0.1 0 0.2-0.1 0.3-0.1 0.4-0.4 0.6-0.8 0.6-0.4-0.1-0.6-0.4-0.6-0.7 0-0.7-0.1-1.4 0.1-2 0.2-1.1 0.1-2.1-0.1-3.2-0.5-2-1.2-4-2.4-5.8-1.1-1.8-2.6-3.2-4.7-4.2-1.3-0.7-2.7-1-4.2-1.2-0.9-0.1-1.8-0.2-2.7-0.2-0.7 0-1.1-0.2-1.1-0.6 0-0.4 0.3-0.9 0.9-1 1.4-0.3 2.6-0.9 3.6-1.7 2.9-2.2 5.5-4.7 7.3-7.7 1.4-2.2 2.1-4.5 2.3-7q0.1-1.6 0.2-3.1 0-0.5 0.2-0.9 0.2-0.4 0.8-0.3c0.3 0 0.5 0.2 0.5 0.5q0 0.6 0 1.2z"/>
						<path id="&lt;Path&gt;" class="s0" d="m635.9 20.1c-0.3 1.8-0.3 3.6-0.2 5.4q0 2.6 0.8 5.2c1.1 3.8 4 6 8.3 7.1 1.5 0.4 3 0.6 4.6 0.8 0.1 0 0.3 0 0.5 0.1 0.5 0.1 0.7 0.6 0.3 1-0.3 0.3-0.8 0.4-1.2 0.6-2.3 0.9-4.4 2.2-6.2 3.6-2.5 2-3.9 4.4-5 7-0.6 1.5-1 2.9-0.9 4.5 0.1 0.6 0.1 1.1-0.1 1.7-0.1 0.1-0.1 0.2-0.1 0.4-0.2 0.3-0.4 0.6-0.9 0.5-0.4-0.1-0.6-0.4-0.6-0.7 0-0.7-0.1-1.3 0.1-2 0.2-1.1 0.2-2.1-0.1-3.1-0.5-2.1-1.2-4-2.3-5.9-1.2-1.7-2.7-3.2-4.8-4.2-1.3-0.6-2.7-1-4.2-1.1-0.9-0.1-1.8-0.2-2.7-0.2-0.7 0-1.1-0.3-1.1-0.7 0-0.4 0.4-0.8 0.9-0.9 1.4-0.3 2.6-1 3.6-1.7 2.9-2.3 5.5-4.8 7.3-7.7 1.4-2.2 2.1-4.6 2.3-7.1q0.1-1.5 0.2-3.1 0-0.4 0.2-0.8 0.3-0.5 0.8-0.4c0.3 0.1 0.5 0.3 0.5 0.5q0 0.6 0 1.2z"/>
						<path id="&lt;Path&gt;" class="s0" d="m466.3 220.6c-0.2 1.3-0.2 2.5-0.2 3.7q0.1 1.9 0.6 3.6c0.8 2.6 2.7 4.2 5.7 5 1 0.2 2.1 0.4 3.2 0.5q0.2 0 0.3 0c0.4 0.1 0.5 0.5 0.2 0.7-0.2 0.2-0.5 0.3-0.8 0.4q-2.4 1-4.3 2.6c-1.7 1.3-2.7 3-3.4 4.8-0.4 1-0.7 2-0.6 3.1q0.1 0.6-0.1 1.1c-0.1 0.1-0.1 0.2-0.1 0.3-0.1 0.2-0.3 0.4-0.6 0.4-0.3-0.1-0.4-0.3-0.4-0.5 0-0.5 0-0.9 0.1-1.4 0.1-0.7 0.1-1.5-0.1-2.2-0.4-1.4-0.8-2.7-1.6-4-0.8-1.2-1.8-2.2-3.3-2.9-0.9-0.4-1.9-0.7-2.9-0.8q-0.9-0.1-1.8-0.1c-0.5 0-0.8-0.2-0.8-0.5 0-0.3 0.2-0.5 0.6-0.6 1-0.2 1.8-0.7 2.5-1.2 2-1.6 3.8-3.3 5-5.3 1-1.5 1.5-3.2 1.6-4.9q0.1-1 0.1-2.1 0.1-0.3 0.2-0.6 0.2-0.3 0.5-0.2c0.3 0 0.4 0.1 0.4 0.3q0 0.4 0 0.8z"/>
						<path id="&lt;Path&gt;" class="s0" d="m420 150.1c-3.9 0-3.9 6 0 6 3.9 0 3.9-6 0-6z"/>
						<path id="&lt;Path&gt;" class="s0" d="m394 213.1c-3.9 0-3.9 6 0 6 3.9 0 3.9-6 0-6z"/>
						<path id="&lt;Path&gt;" class="s0" d="m433 219.1c-3.9 0-3.9 6 0 6 3.9 0 3.9-6 0-6z"/>
						<path id="&lt;Path&gt;" class="s0" d="m627 124.1c-3.9 0-3.9 6 0 6 3.9 0 3.9-6 0-6z"/>
						<path id="&lt;Path&gt;" class="s0" d="m700 72.1c-3.9 0-3.9 6 0 6 3.9 0 3.9-6 0-6z"/>
						<path id="&lt;Path&gt;" class="s0" d="m444-3.9c-3.9 0-3.9 6 0 6 3.9 0 3.9-6 0-6z"/>
						<path id="&lt;Path&gt;" class="s0" d="m421 174.1c-7.7 0-7.7 12 0 12 7.7 0 7.7-12 0-12z"/>
						<path id="&lt;Path&gt;" class="s0" d="m550-5.9c-7.7 0-7.7 12 0 12 7.7 0 7.7-12 0-12z"/>
						<path id="&lt;Path&gt;" class="s0" d="m643 138.1c-7.7 0-7.7 12 0 12 7.7 0 7.7-12 0-12z"/>
						<path id="&lt;Path&gt;" class="s0" d="m686 27.1c-7.7 0-7.7 12 0 12 7.7 0 7.7-12 0-12z"/>
						<path id="&lt;Path&gt;" class="s0" d="m362 46.1c-7.7 0-7.7 12 0 12 7.7 0 7.7-12 0-12z"/>
						<path id="&lt;Path&gt;" class="s0" d="m410 72.1c-3.9 0-3.9 6 0 6 3.9 0 3.9-6 0-6z"/>
						<path id="&lt;Path&gt;" class="s0" d="m359 211.1c-3.9 0-3.9 6 0 6 3.9 0 3.9-6 0-6z"/>
					</g>
				</g>
			</g>
			<path id="&lt;Compound Path&gt;" fill-rule="evenodd" class="s24" d="m794.2 394.4c-11.7 69.7-21 152.7-54.7 174.4-32.4 20.8-95.8 28.7-153.1 8.5l-4.1 118.6-112 106-167.2-73.4c-17.8 11-35.4 17.5-35.6 17.5l-0.7-1.8c0.4-0.2 16.9-6.3 34-16.7l-271-119.1-2.5-127 113-95 18.2 6.1-4.2-136.1 33.5-20 209.9 58.5c7.9-7.7 20.1-16.5 35.8-18.1 17.3-1.8 38.1-11 53.3-21.9 3.3-5.6 6.5-11.4 9.3-16.6q-1.6 0-3.3 0.1c0 0 7.9-15.8 15.3-32-16.7-1.8-33.3-12.7-41.3-22-10.2-11.9-5.2-31.7-3.5-43.6-3.2-5.1-6.6-6.5-12.5-12.4-6-6-10-8-12-14-2-6 0-8 2-14 2-6-9.2-12-4-18 2.8-3.1 5.2-5.1 7.2-6.3-0.1-0.1-0.1-0.3-0.2-0.5-0.9-5.2 5.6-5.2 9-5.2 4 0 4-10 4-10 6 0 8-8 10-10 2-2 12-10 20-12 8-2 16 10 18 10 2 0 10-6 20-8 10-2 14 6 16 6 2 0 8 0 14 4 6 4 10 8 18 10 8 2 6 24 6 26 0 2 4 4 2 8-1.5 3.1-0.7 18.3-3.9 24.9q0.1 0.1 0.3 0.1c12.7 4.7 6.7 41.1-13.4 40 8.6 0.9 23 2.6 41 5 1.4 0.2 2.8 0.6 4.1 1 5 0.2 9.8 2 14.3 4.9 3.7-0.6 7.2-1 10.6-1.2 46.4-2.7 107.4 21.3 116 30.3 8.7 9 4 33.7 13.7 50 9.7 16.4 42.3 75.4 30.7 145zm-232.1-235.2q-0.8-0.1-1.6-0.3 0 0 0 0.1 0.7 0.1 1.6 0.2z"/>
			<path id="&lt;Compound Path&gt;" fill-rule="evenodd" class="s25" d="m794.2 394.4c-11.7 69.7-21 152.7-54.7 174.4-32.4 20.8-95.8 28.7-153.1 8.5l-4.1 118.6-112 106-167.2-73.4c-17.8 11-35.4 17.5-35.6 17.5l-0.7-1.8c0.4-0.2 16.9-6.3 34-16.7l-271-119.1-2.5-127 113-95 18.2 6.1-4.2-136.1 33.5-20 209.9 58.5c7.9-7.7 20.1-16.5 35.8-18.1 17.3-1.8 38.1-11 53.3-21.9 3.3-5.6 6.5-11.4 9.3-16.6q-1.6 0-3.3 0.1c0 0 7.9-15.8 15.3-32-16.7-1.8-33.3-12.7-41.3-22-10.2-11.9-5.2-31.7-3.5-43.6-3.2-5.1-6.6-6.5-12.5-12.4-6-6-10-8-12-14-2-6 0-8 2-14 2-6-9.2-12-4-18 2.8-3.1 5.2-5.1 7.2-6.3-0.1-0.1-0.1-0.3-0.2-0.5-0.9-5.2 5.6-5.2 9-5.2 4 0 4-10 4-10 6 0 8-8 10-10 2-2 12-10 20-12 8-2 16 10 18 10 2 0 10-6 20-8 10-2 14 6 16 6 2 0 8 0 14 4 6 4 10 8 18 10 8 2 6 24 6 26 0 2 4 4 2 8-1.5 3.1-0.7 18.3-3.9 24.9q0.1 0.1 0.3 0.1c12.7 4.7 6.7 41.1-13.4 40 8.6 0.9 23 2.6 41 5 1.4 0.2 2.8 0.6 4.1 1 5 0.2 9.8 2 14.3 4.9 3.7-0.6 7.2-1 10.6-1.2 46.4-2.7 107.4 21.3 116 30.3 8.7 9 4 33.7 13.7 50 9.7 16.4 42.3 75.4 30.7 145zm-232.1-235.2q-0.8-0.1-1.6-0.3 0 0 0 0.1 0.7 0.1 1.6 0.2z"/>
			<g id="&lt;Group&gt;" style="mix-blend-mode: overlay">
				<path id="&lt;Path&gt;" class="s26" d="m465.5 52.4c-1.7 3.1-4 8-8.7 8 0 0 0 10-4 10-3.4 0-9.9 0-9 5.2 0.1 0.2 0.1 0.4 0.2 0.5-2 1.2-4.4 3.2-7.2 6.3-5.2 6 6 12 4 18-2 6-4 8-2 14 2 6 6 8 12 14 5.9 5.9 9.3 7.3 12.5 12.4-1.7 11.9-6.7 31.7 3.5 43.6 8 9.3 24.6 20.2 41.3 22-7.4 16.2-15.3 32-15.3 32q1.7-0.1 3.3-0.1c-2.8 5.2-6 11-9.3 16.6-15.2 10.9-36 20.1-53.3 21.9-15.1 1.5-27 9.7-34.8 17.2q0 0 0.1 0.1c0.7-0.1 1.5 0.1 2.3 0.7 3.5 3 8.7 3.5 13.7 3.7 69.9-4.2 125.2-60.6 125.2-129.6 0-51.1-30.3-95.3-74.5-116.5z"/>
			</g>
			<path id="&lt;Path&gt;" class="s27" d="m755.9 261c-6.4-2.2-11.3 1.6-10 7.2-0.5 0.8-0.5 1.8 0 2.8 10.2 17.6-0.3 41.6 4.5 60.9 0.4 1.5 1 3.3 2.4 3.9 5.2 2.3 9.4-11.1 10.5-14.1 3.4-9.2 5.3-19 5.3-28.8 0.1-10-1.1-27.8-12.7-31.9z"/>
			<path id="&lt;Path&gt;" class="s28" d="m266.2 294.3c-32.8-7.7-65-17.3-96.5-29.1-3.7-1.3-5.2 4.5-1.6 5.8 31.5 11.7 63.7 21.4 96.5 29.1 3.7 0.8 5.3-5 1.6-5.8z"/>
			<path id="&lt;Path&gt;" class="s29" d="m283.3 299.1c-0.9-0.1-2.4-0.6-3.2-1.2-1.2-1.1-3-1.3-4.2 0-1 1-1.3 3.2 0 4.2 2.2 1.7 4.6 2.7 7.4 3 1.6 0.1 3-1.5 3-3 0-1.8-1.3-2.9-3-3z"/>
			<path id="&lt;Path&gt;" class="s30" d="m559.5 195.1c-3.6-1.2-6.7-3.2-9.3-6-2.6-2.8-6.8 1.4-4.2 4.3 3.2 3.5 7.3 6 11.9 7.5 3.7 1.2 5.2-4.6 1.6-5.8z"/>
			<path id="&lt;Path&gt;" class="s31" d="m529.9 305.7c-4.6-4.3-10-7.9-16.4-5.1-3.5 1.6-0.5 6.7 3 5.2 3.4-1.5 7 2.1 9.2 4.2 2.8 2.6 7-1.6 4.2-4.3z"/>
			<path id="&lt;Path&gt;" class="s32" d="m595.6 312.7c-4.1-2.1-8.2-4.6-12.5-6.4-3.2-1.3-6.5-1.7-9.5 0.3-3.2 2.1-0.2 7.3 3.1 5.2 2.3-1.6 5.5 0.6 7.6 1.8q4.1 2.1 8.3 4.3c3.4 1.8 6.4-3.4 3-5.2z"/>
			<path id="&lt;Path&gt;" class="s33" d="m549.1 320.6c-3.6 2.4-7.6 3.1-11.8 2-3.7-1.1-5.3 4.7-1.6 5.7 5.6 1.6 11.6 0.7 16.4-2.6 3.2-2.1 0.2-7.3-3-5.1z"/>
			<path id="&lt;Path&gt;" class="s34" d="m622.5 233.5q-14.3-13.7-23.9-31c-1.8-3.4-7-0.4-5.2 3 6.7 12 15 22.8 24.8 32.3 2.8 2.6 7.1-1.6 4.3-4.3z"/>
			<path id="&lt;Path&gt;" class="s35" d="m647.7 267.2c-2.8-9.1-10.9-15.1-15.5-23.3-1.9-3.3-7.1-0.3-5.2 3.1 7.3 13 23.3 23.6 11.8 39.9-2.2 3.2 3 6.2 5.2 3 4.7-6.7 6.1-14.8 3.7-22.7z"/>
		</g>
	</g>
	<g id="DESIGNED BY FREEPIK">
		<g id="&lt;Group&gt;">
			<g id="&lt;Group&gt;">
				<g id="&lt;Group&gt;">
					<path id="&lt;Path&gt;" class="s36" d="m432.2 844q-1.3 1.3-2.2 2.9l-0.9-0.5c-0.2-0.6-0.7-1-1.4-0.9-0.6 0.1-1.1 0.7-1 1.3 0.1 0.7 0.7 1.1 1.3 1.1q0.2-0.1 0.4-0.1l0.9 0.4q-0.8 1.7-1.1 3.5l1.5 0.3c0.5-2.6 1.7-5 3.6-7z"/>
					<path id="&lt;Path&gt;" class="s36" d="m443.2 839.4q-0.5 0-1 0l-0.2-1.2c0.4-0.3 0.6-0.8 0.5-1.3 0-0.8-0.8-1.4-1.5-1.3-0.8 0.1-1.4 0.8-1.3 1.6 0.1 0.5 0.4 0.9 0.8 1.1l0.2 1.3q-2.2 0.3-4.2 1.3l0.7 1.3q2.8-1.3 6-1.3 1.5 0 2.9 0.3l0.4-1.5q-1.7-0.3-3.3-0.3z"/>
					<path id="&lt;Path&gt;" class="s36" d="m456.4 844.5c0.6-0.1 1.1-0.7 1-1.4 0-0.6-0.6-1.1-1.3-1-0.6 0.1-1.1 0.6-1.1 1.2l-0.8 0.7q-1.3-1.3-2.8-2.3l-0.8 1.3c2.2 1.5 4 3.5 5.1 5.9l1.4-0.6q-0.8-1.7-1.9-3.1l0.8-0.7q0.2 0 0.4 0z"/>
					<path id="&lt;Path&gt;" class="s36" d="m442.1 859.8q-1.2 0.1-2.3 0.1c-1.8 0-3.5-0.2-5-0.4-0.8-0.1-1.7-0.3-2.5-0.6 2.1 3.7 6.1 6.3 10.8 6.3 5.7 0 10.5-3.9 11.9-9q-2.1 1.3-5 2.2c-2.3 0.7-5.1 1.2-7.9 1.4z"/>
					<path id="&lt;Compound Path&gt;" fill-rule="evenodd" class="s36" d="m455.2 852.8q0.1 0.6 0.1 1.2c-2.7 2.4-7.5 3.9-13.3 4.3-5.3 0.3-9.4-0.5-10.7-1.5q-0.3-1.2-0.3-2.5c0-6.6 5.5-11.9 12.2-11.9 6.1 0 11.3 4.5 12 10.4zm-12.6-1.1c0-2-1.7-3.7-3.7-3.7-2.1 0-3.7 1.7-3.7 3.7 0 2.1 1.6 3.7 3.7 3.7 2 0 3.7-1.6 3.7-3.7zm8.5-0.8c0-1.5-1.3-2.7-2.8-2.7-1.5 0-2.7 1.2-2.7 2.7 0 1.5 1.2 2.7 2.7 2.7 1.5 0 2.8-1.2 2.8-2.7z"/>
				</g>
				<path id="&lt;Compound Path&gt;" class="s36" d="m475.2 846.1c-0.6-0.2-1.6-0.6-2.8-0.4-1.1 0.1-1.7 0.7-1.7 2v1.7h4.5v3.5h-4.5v10.9h-3.8v-10.9h-2.7v-3.5h2.7v-1.8c0-3.3 1.8-5.5 5.1-5.5 1.3 0 2.3 0.2 3.2 0.6z"/>
				<path id="&lt;Compound Path&gt;" class="s36" d="m484.6 852.8q-0.5-0.1-1.1-0.1c-1.7 0-3 1.1-3 3.2v7.9h-3.8v-14.4h3.7v1.6c0.9-1.4 2.3-2 4-2 0.9 0 1.7 0.3 2.2 0.7z"/>
				<path id="&lt;Compound Path&gt;" fill-rule="evenodd" class="s36" d="m499.9 856.6c0 0.4 0 0.9 0 1.3h-10.2c0.4 2 1.9 2.9 3.7 2.9 1.2 0 2.6-0.5 3.6-1.3l2.3 2.5c-1.7 1.4-3.7 2.1-6.1 2.1-4.4 0-7.5-3-7.5-7.5 0-4.5 3-7.6 7.3-7.6 4.1 0 6.9 3.1 6.9 7.6zm-10.2-1.4h6.4c-0.4-1.8-1.5-2.8-3.2-2.8-1.8 0-2.9 1.1-3.2 2.8z"/>
				<path id="&lt;Compound Path&gt;" fill-rule="evenodd" class="s36" d="m515.2 856.6c0 0.4 0 0.9 0 1.3h-10.2c0.4 2 1.9 2.9 3.7 2.9 1.2 0 2.6-0.5 3.6-1.3l2.3 2.5c-1.7 1.4-3.7 2.1-6.1 2.1-4.4 0-7.5-3-7.5-7.5 0-4.5 3-7.6 7.3-7.6 4.1 0 6.9 3.1 6.9 7.6zm-10.2-1.4h6.4c-0.4-1.8-1.5-2.8-3.2-2.8-1.8 0-2.9 1.1-3.2 2.8z"/>
				<path id="&lt;Compound Path&gt;" fill-rule="evenodd" class="s36" d="m531.9 856.6c0 4.3-3 7.5-6.9 7.5-1.9 0-3.3-0.7-4.2-1.8v7.4h-3.9v-20.3h3.8v1.6c0.9-1.2 2.3-2 4.3-2 3.9 0 6.9 3.3 6.9 7.6zm-11.3 0c0 2.2 1.5 3.9 3.7 3.9 2.2 0 3.7-1.7 3.7-3.9 0-2.2-1.5-4-3.7-4-2.2 0-3.7 1.7-3.7 4z"/>
				<path id="&lt;Compound Path&gt;" class="s36" d="m538.1 844.7c0 1.4-1 2.5-2.4 2.5-1.4 0-2.5-1.1-2.5-2.5 0-1.4 1.1-2.5 2.5-2.5 1.4 0 2.4 1.1 2.4 2.5zm-0.5 19.1h-3.8v-14.4h3.8z"/>
				<path id="&lt;Compound Path&gt;" class="s36" d="m544.1 854.5l5.4-5.1h4.7l-7 6.8 7 7.6h-4.7l-5.4-5.8v5.8h-3.9v-21.4h3.9z"/>
			</g>
			<g id="&lt;Group&gt;">
				<path id="&lt;Compound Path&gt;" fill-rule="evenodd" class="s36" d="m280.8 863.6v-2.1c-1 1.5-2.8 2.5-4.8 2.5-3.6 0-6.2-2.8-6.2-7.4 0-4.5 2.5-7.5 6.2-7.5 2 0 3.7 1 4.8 2.5v-7.5h2.2v19.5zm0-3.8v-6.4c-0.8-1.3-2.5-2.3-4.2-2.3-2.9 0-4.6 2.3-4.6 5.5 0 3.1 1.7 5.4 4.6 5.4 1.7 0 3.4-1 4.2-2.2z"/>
				<path id="&lt;Compound Path&gt;" fill-rule="evenodd" class="s36" d="m285.9 856.5c0-4.1 2.9-7.4 6.9-7.4 4.3 0 6.8 3.4 6.8 7.6v0.6h-11.4c0.2 2.6 2 4.9 5.1 4.9 1.6 0 3.2-0.7 4.3-1.8l1.1 1.4c-1.4 1.4-3.3 2.2-5.6 2.2-4.2 0-7.2-3-7.2-7.5zm6.9-5.6c-3 0-4.5 2.6-4.6 4.8h9.3c-0.1-2.1-1.5-4.8-4.7-4.8z"/>
				<path id="&lt;Compound Path&gt;" class="s36" d="m301.2 861.8l1.2-1.6c0.9 1.1 2.7 2 4.6 2 2.2 0 3.4-1 3.4-2.4 0-3.5-8.8-1.4-8.8-6.6 0-2.2 1.9-4.1 5.3-4.1 2.4 0 4.1 0.9 5.2 2.1l-1 1.5c-0.9-1-2.4-1.8-4.2-1.8-2 0-3.2 1-3.2 2.2 0 3.1 8.8 1.1 8.8 6.6 0 2.4-1.9 4.3-5.6 4.3-2.3 0-4.3-0.7-5.7-2.2z"/>
				<path id="&lt;Compound Path&gt;" class="s36" d="m315 846c0-0.8 0.6-1.5 1.4-1.5 0.8 0 1.5 0.7 1.5 1.5 0 0.8-0.7 1.5-1.5 1.5-0.8 0-1.4-0.7-1.4-1.5zm0.3 17.6v-14.1h2.2v14.1z"/>
				<path id="&lt;Compound Path&gt;" fill-rule="evenodd" class="s36" d="m321.2 867.3l1.1-1.7c1.1 1.4 2.6 2 4.6 2 2.3 0 4.5-1.2 4.5-4.3v-2c-1 1.4-2.7 2.5-4.7 2.5-3.7 0-6.3-2.7-6.3-7.3 0-4.6 2.6-7.4 6.3-7.4 1.9 0 3.6 1 4.7 2.5v-2.1h2.2v13.7c0 4.7-3.3 6.2-6.7 6.2-2.4 0-4.1-0.5-5.7-2.1zm10.2-7.7v-6.2c-0.7-1.3-2.4-2.3-4.2-2.3-2.8 0-4.5 2.2-4.5 5.4 0 3.1 1.7 5.4 4.5 5.4 1.8 0 3.5-1.1 4.2-2.3z"/>
				<path id="&lt;Compound Path&gt;" class="s36" d="m346.8 863.6v-9.2c0-2.5-1.2-3.3-3.1-3.3-1.8 0-3.4 1-4.2 2.2v10.3h-2.2v-14.1h2.2v2c1-1.1 2.9-2.4 5-2.4 3 0 4.5 1.5 4.5 4.6v9.9z"/>
				<path id="&lt;Compound Path&gt;" fill-rule="evenodd" class="s36" d="m351.9 856.5c0-4.1 2.9-7.4 6.9-7.4 4.3 0 6.8 3.4 6.8 7.6v0.6h-11.4c0.2 2.6 2 4.9 5.1 4.9 1.6 0 3.2-0.7 4.3-1.8l1.1 1.4c-1.4 1.4-3.3 2.2-5.6 2.2-4.2 0-7.2-3-7.2-7.5zm6.9-5.6c-3 0-4.5 2.6-4.6 4.8h9.3c-0.1-2.1-1.5-4.8-4.7-4.8z"/>
				<path id="&lt;Compound Path&gt;" fill-rule="evenodd" class="s36" d="m378.7 863.6v-2.1c-1.1 1.5-2.8 2.5-4.8 2.5-3.7 0-6.3-2.8-6.3-7.4 0-4.5 2.6-7.5 6.3-7.5 1.9 0 3.7 1 4.8 2.5v-7.5h2.2v19.5zm0-3.8v-6.4c-0.8-1.3-2.5-2.3-4.3-2.3-2.8 0-4.5 2.3-4.5 5.5 0 3.1 1.7 5.4 4.5 5.4 1.8 0 3.5-1 4.3-2.2z"/>
				<path id="&lt;Compound Path&gt;" fill-rule="evenodd" class="s36" d="m391.4 863.6v-19.5h2.2v7.5c1.1-1.5 2.8-2.5 4.8-2.5 3.6 0 6.3 3 6.3 7.5 0 4.6-2.7 7.4-6.3 7.4-2 0-3.8-1-4.8-2.5v2.1zm6.4-1.6c2.9 0 4.6-2.3 4.6-5.4 0-3.2-1.7-5.5-4.6-5.5-1.7 0-3.5 1-4.2 2.3v6.4c0.7 1.2 2.5 2.2 4.2 2.2z"/>
				<path id="&lt;Compound Path&gt;" class="s36" d="m407.1 867.2c0.3 0.1 0.8 0.2 1.2 0.2 0.9 0 1.6-0.3 2.1-1.5l0.9-2.1-5.9-14.3h2.4l4.7 11.6 4.7-11.6h2.4l-7.1 17c-0.9 2.1-2.3 2.8-4.2 2.9-0.5 0-1.2-0.1-1.6-0.2z"/>
			</g>
		</g>
	</g>
</svg>